<?xml version="1.0" encoding="utf-8"?>
<!-- Generator: Adobe Illustrator 27.4.1, SVG Export Plug-In . SVG Version: 6.00 Build 0)  -->
<svg version="1.1" id="Layer_6" xmlns="http://www.w3.org/2000/svg" xmlns:xlink="http://www.w3.org/1999/xlink" x="0px" y="0px"
	 viewBox="0 0 725.5 326.1" style="enable-background:new 0 0 725.5 326.1;" xml:space="preserve">
<style type="text/css">
	.st0{fill:#96449A;}
	.st1{fill:#4CC2BF;}
	.st2{fill:#48C1BE;}
	.st3{fill:#F36D38;}
	.st4{fill:#53276B;}
	.st5{fill:#FFFFFF;}
</style>
<g>
	<path class="st0" d="M688.4,20.5H36.3c-11.6,0-21.1,9.5-21.1,21.1v210.6c0,11.6,9.5,21.1,21.1,21.1h652.1
		c11.6,0,21.1-9.5,21.1-21.1V41.6C709.5,29.9,700.1,20.5,688.4,20.5z M695.5,252.2c0,3.9-3.2,7.1-7.1,7.1H36.3
		c-3.9,0-7.1-3.2-7.1-7.1V41.6c0-3.9,3.2-7.1,7.1-7.1h652.1c3.9,0,7.1,3.2,7.1,7.1V252.2L695.5,252.2z"/>
</g>
<g>
	<path class="st1" d="M187.4,151.7c0-0.4,0-0.9,0-1.3s0-0.9,0-1.3c0,0.4,0,0.9,0,1.3S187.4,151.2,187.4,151.7z"/>
	<path class="st2" d="M140.6,185.6c-7.2,8.7-17,13.1-29.3,13.1H87.1V102h24.1c12.2,0,22,4.4,29.3,13.1c7.7,9.2,11.6,20.6,11.9,34
		c0.2-20.1,5.8-37.5,16.7-52.1c-0.6-0.8-1.3-1.6-2-2.4c-13.9-16.3-32.5-24.4-55.9-24.4H61.6c-5.7,0-8.5,2.8-8.5,8.4v143.6
		c0,5.6,2.8,8.4,8.5,8.4h49.6c23.2,0,41.9-8.1,55.9-24.4c0.7-0.8,1.4-1.6,2-2.4c-10.9-14.7-16.5-32-16.7-52.1
		C152.2,165,148.2,176.4,140.6,185.6L140.6,185.6z"/>
	<path class="st1" d="M152.4,151.6c0-0.4,0.1-0.8,0.1-1.3s0-0.8-0.1-1.3c0,0.4,0,0.8,0,1.3S152.4,151.2,152.4,151.6z"/>
	<path class="st3" d="M199.2,113.1c7.2-8.8,17-13.2,29.2-13.2s22.7,4.6,30,13.8c1.9,2.4,4,3.6,6.3,3.6c1.8,0,3.6-0.8,5.6-2.4
		l12.9-10.4c2.5-2,3.7-4.1,3.7-6.4c0-1.8-0.8-3.6-2.4-5.5c-14-16.4-32.6-24.5-55.9-24.5s-41.8,8.2-55.9,24.5
		c-1.2,1.4-2.4,2.9-3.6,4.5c11.9,14.9,18,32.3,18.3,52C187.6,134.5,191.5,122.5,199.2,113.1L199.2,113.1z"/>
	<path class="st3" d="M283.5,134.4h-47.9c-5.7,0-8.5,2.8-8.5,8.4v15.1c0,5.6,2.8,8.4,8.5,8.4l22.4,0.1v21.7
		c-7.1,8.5-16.8,12.8-29,12.8s-22.2-4.4-29.8-13.2c-7.7-9-11.6-21-11.9-36c-0.3,19.8-6.3,37.2-18.2,52c1.1,1.5,2.3,3,3.5,4.5
		c14,16.4,32.7,24.5,55.9,24.5s41.9-8.2,55.9-24.5c2.3-2.8,4.9-6.4,7.5-10.8v-54.5C292,137.2,289.1,134.4,283.5,134.4z"/>
</g>
<path class="st0" d="M355,230.6c-5.7,0-8.5-2.8-8.5-8.4V102.1H309c-5.7,0-8.5-2.8-8.5-8.4V78.6c0-5.6,2.8-8.4,8.5-8.4h109
	c5.7,0,8.5,2.8,8.5,8.4v15.1c0,5.6-2.8,8.4-8.5,8.4h-37.5v120.2c0,5.6-2.8,8.4-8.5,8.4L355,230.6L355,230.6z"/>
<path class="st0" d="M674.7,230.6h-85.8c-4.2,0-6.4-2.8-6.4-8.4V78.6c0-5.6,2.1-8.4,6.4-8.4H608c5.7,0,8.5,2.8,8.5,8.4v120.2h58.2
	c5.7,0,8.5,2.8,8.5,8.4v15.1C683.2,227.8,680.4,230.6,674.7,230.6L674.7,230.6z"/>
<path class="st4" d="M502.1,311.9c-1.1-0.3-2.3-0.6-3.4-1c-4-1.6-6.8-4.4-8.5-8.3c-5.9-13.7-11.9-27.5-17.8-41.2
	c-0.1-0.3-0.2-0.5-0.4-0.8c-0.2,0.2-0.4,0.3-0.5,0.5c-6,5.6-12,11.3-18.1,17c-3,2.8-6.6,4.4-10.7,4.4c-6.1,0.1-11.7-3.6-14.2-9.3
	c-0.9-2-1.2-4.2-1.2-6.4c0-41.5-0.1-83-0.1-124.4c0-4.6,0-9.2,0-13.8c0-7.5,4.7-13.5,12-15.2c5-1.1,9.5,0,13.3,3.4
	c5.8,5.3,11.5,10.7,17.2,16.1c10.9,10.2,21.8,20.4,32.7,30.6c10.8,10.1,21.6,20.2,32.3,30.3c6.2,5.8,12.4,11.7,18.7,17.5
	c3.4,3.2,5.2,7,5.2,11.7c0,7.4-5.6,13.9-12.9,14.9c-2.5,0.4-5.1,0.5-7.6,0.8c-3,0.3-6,0.6-9,0.8c-3,0.3-5.9,0.5-8.9,0.8
	c-0.9,0.1-1.8,0.2-2.7,0.3c0.9,2,1.8,3.9,2.7,5.8c5.5,12,10.9,23.9,16.4,35.9c3.7,8.1,0.2,17.2-8,20.8c-5.9,2.5-11.8,5.2-17.7,7.7
	c-1.3,0.5-2.6,0.8-4,1.2c-0.1,0-0.2,0.1-0.3,0.1L502.1,311.9L502.1,311.9z M522.8,288.6c-9.4-20.5-18.7-41-28.1-61.6
	c16.3-1.5,32.4-2.9,48.7-4.4c-33.7-31.5-67.2-62.9-100.8-94.4c0.1,46.3,0.1,92.5,0.2,138.7c0.1,0,0.1,0,0.2,0
	c11.5-10.8,23-21.6,34.6-32.5c9,20.8,17.9,41.5,26.9,62.3C510.6,294,516.7,291.3,522.8,288.6L522.8,288.6z"/>
<path class="st5" d="M522.8,288.6c-6.2,2.7-12.3,5.4-18.4,8.1c-9-20.8-17.9-41.5-26.9-62.3C466,245.2,454.5,256,443,266.9
	c-0.1,0-0.1,0-0.2,0c-0.1-46.2-0.1-92.3-0.2-138.7c33.6,31.5,67.2,62.9,100.8,94.4c-16.3,1.5-32.4,2.9-48.7,4.4
	C504.1,247.6,513.5,268,522.8,288.6L522.8,288.6z"/>
<path class="st0" d="M169.1,203.7c11.9-14.9,18-32.2,18.2-52c0-0.4,0-0.9,0-1.3s0-0.9,0-1.3c-0.2-19.8-6.3-37.1-18.3-52.1
	c-10.9,14.6-16.5,31.9-16.7,52.1c0,0.4,0.1,0.8,0.1,1.3s0,0.8-0.1,1.3C152.6,171.7,158.2,189.1,169.1,203.7L169.1,203.7z"/>
</svg>
