<?xml version="1.0" encoding="utf-8"?>
<!-- Generator: Adobe Illustrator 27.4.1, SVG Export Plug-In . SVG Version: 6.00 Build 0)  -->
<svg version="1.1" id="Capa_1" xmlns="http://www.w3.org/2000/svg" xmlns:xlink="http://www.w3.org/1999/xlink" x="0px" y="0px"
	 viewBox="0 0 240.03 239.25" style="enable-background:new 0 0 240.03 239.25;" xml:space="preserve">
<path d="M120.26,0c27.67,0,55.33,0,83,0c16.09,0,30.92,11.26,35.28,26.7c1.01,3.59,1.47,7.25,1.48,10.94
	c0.02,54.82,0.05,109.64,0,164.46c-0.02,18.07-12.4,32.57-29.32,36.29c-2.5,0.55-5.12,0.82-7.68,0.82
	c-55.25,0.05-110.49,0.03-165.74,0.04c-18.36,0-33.55-13.14-36.67-30.57c-0.44-2.44-0.57-4.96-0.57-7.44
	C-0.01,146.63,0,92.02,0,37.4c0-16.22,9.93-30.16,25.24-35.45C28.97,0.67,32.82,0,36.76,0C64.6,0,92.43,0,120.26,0z M20.02,119.51
	c0,27.83,0,55.65,0,83.48c0,4.45,1.61,8.26,4.7,11.45c3.57,3.69,8.04,4.88,13.04,4.88c55-0.02,109.99-0.02,164.99-0.02
	c0.54,0,1.08,0,1.62-0.03c8.91-0.47,15.61-7.52,15.61-16.4c0-55.36,0-110.72-0.02-166.08c0-1.4-0.12-2.83-0.41-4.2
	c-1.6-7.38-8.32-12.61-16.19-12.61c-55.37-0.01-110.74-0.01-166.12,0.01c-1.45,0-2.93,0.08-4.34,0.38
	c-7.7,1.65-12.89,8.17-12.9,16.17C20.02,64.19,20.02,91.85,20.02,119.51z"/>
<path d="M193.28,77.12c-0.08,9.79-3.07,17.68-9.48,24.12c-12,12.05-24.08,24.03-36.13,36.04c-12.37,12.33-24.81,24.59-37.06,37.04
	c-4.06,4.12-9,6.03-14.37,7.5c-11.7,3.22-23.36,6.61-35.03,9.93c-2.8,0.8-5.57,1.23-8.41,0.01c-4.34-1.85-6.96-6.82-5.69-11.35
	c3.39-12.05,6.81-24.1,10.32-36.12c1-3.41,2.2-6.78,3.57-10.05c0.59-1.4,1.73-2.65,2.83-3.75c13.47-13.47,26.98-26.89,40.46-40.34
	c10.69-10.66,21.39-21.3,32.04-32c3.97-3.99,8.24-7.46,13.6-9.46c17.67-6.6,37.39,3.52,42.13,21.69
	C192.7,72.81,192.97,75.34,193.28,77.12z M71.24,168.25c0.76-0.16,1.25-0.24,1.72-0.37c6.68-1.89,13.37-3.74,20.03-5.71
	c1.27-0.38,2.64-0.99,3.56-1.9c16.6-16.46,33.14-32.97,49.69-49.48c7.98-7.96,16.03-15.85,23.88-23.94
	c3.55-3.66,4.51-8.13,2.35-12.97c-1.78-3.99-4.85-6.51-9.14-7.33c-4.52-0.86-8.23,0.85-11.39,4.01
	c-10.18,10.17-20.37,20.33-30.56,30.49c-13.99,13.94-28.01,27.87-41.97,41.85c-0.81,0.82-1.52,1.91-1.85,3.01
	c-2.09,6.99-4.05,14.02-6.05,21.04C71.4,167.28,71.36,167.63,71.24,168.25z"/>
</svg>
