<svg xmlns="http://www.w3.org/2000/svg" version="1.1" xmlns:xlink="http://www.w3.org/1999/xlink" xmlns:svgjs="http://svgjs.com/svgjs" width="595.28" height="841.89"><svg version="1.1" id="SvgjsSvg1000" xmlns="http://www.w3.org/2000/svg" xmlns:xlink="http://www.w3.org/1999/xlink" x="0px" y="0px" viewBox="0 0 595.28 841.89" style="enable-background:new 0 0 595.28 841.89;" xml:space="preserve">
<style type="text/css">
	.st0{fill:#53276B;}
</style>
<path class="st0" d="M336.4,841.04c-4.65-1.27-9.72-2.54-14.38-4.23c-16.91-6.77-28.75-18.6-35.94-35.09
	c-24.95-57.93-50.32-116.28-75.26-174.2c-0.42-1.27-0.85-2.11-1.69-3.38c-0.85,0.85-1.69,1.27-2.11,2.11
	c-25.37,23.68-50.74,47.78-76.53,71.88c-12.68,11.84-27.91,18.6-45.24,18.6c-25.79,0.42-49.47-15.22-60.04-39.32
	c-3.81-8.46-5.07-17.76-5.07-27.06c0-175.47-0.42-350.94-0.42-525.99c0-19.45,0-38.9,0-58.35c0-31.71,19.87-57.08,50.74-64.27
	c21.14-4.65,40.17,0,56.24,14.38c24.52,22.41,48.62,45.24,72.73,68.07c46.09,43.13,92.18,86.26,138.26,129.38
	c45.67,42.71,91.33,85.41,136.57,128.12c26.22,24.52,52.43,49.47,79.07,73.99c14.38,13.53,21.99,29.6,21.99,49.47
	c0,31.29-23.68,58.77-54.54,63c-10.57,1.69-21.56,2.11-32.13,3.38c-12.68,1.27-25.37,2.54-38.05,3.38
	c-12.68,1.27-24.95,2.11-37.63,3.38c-3.81,0.42-7.61,0.85-11.42,1.27c3.81,8.46,7.61,16.49,11.42,24.52
	c23.26,50.74,46.09,101.06,69.34,151.79c15.64,34.25,0.85,72.73-33.83,87.95c-24.95,10.57-49.89,21.99-74.84,32.56
	c-5.5,2.11-10.99,3.38-16.91,5.07c-0.42,0-0.85,0.42-1.27,0.42L336.4,841.04L336.4,841.04z M423.92,742.53
	c-39.75-86.68-79.07-173.36-118.81-260.46c68.92-6.34,137-12.26,205.92-18.6C368.53,330.27,226.89,197.51,84.82,64.32
	c0.42,195.77,0.42,391.11,0.85,586.46c0.42,0,0.42,0,0.85,0c48.62-45.66,97.25-91.33,146.3-137.42
	c38.05,87.95,75.69,175.47,113.74,263.42C372.34,765.36,398.13,753.94,423.92,742.53L423.92,742.53z"></path>
</svg><style>@media (prefers-color-scheme: light) { :root { filter: none; } }
</style></svg>